<?xml version="1.0" encoding="UTF-8" standalone="no"?>
<svg
   xmlns:dc="http://purl.org/dc/elements/1.1/"
   xmlns:cc="http://creativecommons.org/ns#"
   xmlns:rdf="http://www.w3.org/1999/02/22-rdf-syntax-ns#"
   xmlns:svg="http://www.w3.org/2000/svg"
   xmlns="http://www.w3.org/2000/svg"
   xmlns:sodipodi="http://sodipodi.sourceforge.net/DTD/sodipodi-0.dtd"
   xmlns:inkscape="http://www.inkscape.org/namespaces/inkscape"
   height="512pt"
   viewBox="-84 0 512 512"
   width="512pt"
   version="1.1"
   id="svg6"
   sodipodi:docname="locale-white.svg"
   inkscape:version="1.0.2 (e86c870879, 2021-01-15)">
  <metadata
     id="metadata12">
    <rdf:RDF>
      <cc:Work
         rdf:about="">
        <dc:format>image/svg+xml</dc:format>
        <dc:type
           rdf:resource="http://purl.org/dc/dcmitype/StillImage" />
      </cc:Work>
    </rdf:RDF>
  </metadata>
  <defs
     id="defs10" />
  <sodipodi:namedview
     pagecolor="#ffffff"
     bordercolor="#666666"
     borderopacity="1"
     objecttolerance="10"
     gridtolerance="10"
     guidetolerance="10"
     inkscape:pageopacity="0"
     inkscape:pageshadow="2"
     inkscape:window-width="924"
     inkscape:window-height="480"
     id="namedview8"
     showgrid="false"
     inkscape:zoom="0.80566406"
     inkscape:cx="341.33333"
     inkscape:cy="242.03636"
     inkscape:window-x="0"
     inkscape:window-y="0"
     inkscape:window-maximized="0"
     inkscape:current-layer="svg6" />
  <path
     d="m221.789062 394.199219 65.910157-89.898438c29.472656-40.179687 55.921875-80.550781 55.921875-132.492187 0-94.5-76.699219-171.429688-171.109375-171.808594h-.722657c-94.71875 0-171.789062 77.070312-171.789062 171.808594 0 51.929687 26.449219 92.3125 55.921875 132.492187l65.90625 89.898438h-76.636719l-44.421875 117.800781h342.082031l-44.421874-117.800781zm-141.679687-107.640625c-27.410156-37.386719-50.109375-71.828125-50.109375-114.75 0-77.980469 63.25-141.449219 141.128906-141.808594h.679688c78.191406 0 141.8125 63.621094 141.8125 141.808594 0 42.921875-22.699219 77.371094-50.109375 114.75 0 0-88 120.332031-91.582031 125.230468zm-35.960937 195.441406 21.792968-57.800781h77.878906l27.710938 37.789062s23.160156-30.476562 28.480469-37.789062h77.667969l21.789062 57.800781zm0 0"
     id="path2"
     style="fill:#ffffff" />
  <path
     d="m277.621094 171.808594c0-58.347656-47.472656-105.808594-105.8125-105.808594s-105.808594 47.460938-105.808594 105.808594c0 58.339844 47.46875 105.800781 105.808594 105.800781s105.8125-47.460937 105.8125-105.800781zm-105.8125 75.800781c-41.796875 0-75.808594-34-75.808594-75.800781 0-41.796875 34.011719-75.808594 75.808594-75.808594 41.800781 0 75.8125 34.011719 75.8125 75.808594 0 41.800781-34.011719 75.800781-75.8125 75.800781zm0 0"
     id="path4"
     style="fill:#ffffff" />
</svg>
